<?xml version="1.0" encoding="UTF-8"?>
<svg xmlns="http://www.w3.org/2000/svg" xmlns:xlink="http://www.w3.org/1999/xlink" width="1920" height="1080" viewBox="0 0 1920 1080">
<defs>
<g>
<g id="glyph-0-0">
<path d="M 1.9375 0.078125 C 1.59375 0.078125 1.316406 0.0390625 1.109375 -0.03125 C 0.898438 -0.113281 0.742188 -0.21875 0.640625 -0.34375 C 0.546875 -0.46875 0.5 -0.597656 0.5 -0.734375 C 0.5 -0.847656 0.539062 -0.945312 0.625 -1.03125 C 0.707031 -1.125 0.832031 -1.171875 1 -1.171875 C 1 -0.753906 1.085938 -0.453125 1.265625 -0.265625 C 1.441406 -0.0859375 1.6875 0 2 0 C 2.34375 0 2.59375 -0.128906 2.75 -0.390625 C 2.90625 -0.648438 2.984375 -1.070312 2.984375 -1.65625 C 2.984375 -2.21875 2.890625 -2.617188 2.703125 -2.859375 C 2.523438 -3.097656 2.238281 -3.21875 1.84375 -3.21875 C 1.644531 -3.21875 1.476562 -3.191406 1.34375 -3.140625 C 1.207031 -3.085938 1.09375 -3.023438 1 -2.953125 C 0.90625 -2.878906 0.820312 -2.804688 0.75 -2.734375 L 0.65625 -2.765625 L 0.890625 -5.546875 L 3.5 -5.546875 L 3.53125 -4.375 L 3.453125 -4.375 L 3.453125 -4.453125 C 3.429688 -4.628906 3.378906 -4.75 3.296875 -4.8125 C 3.222656 -4.882812 3.09375 -4.921875 2.90625 -4.921875 L 0.921875 -4.921875 L 0.734375 -2.8125 C 0.890625 -2.988281 1.078125 -3.117188 1.296875 -3.203125 C 1.515625 -3.296875 1.753906 -3.34375 2.015625 -3.34375 C 2.328125 -3.34375 2.617188 -3.285156 2.890625 -3.171875 C 3.160156 -3.054688 3.378906 -2.875 3.546875 -2.625 C 3.710938 -2.382812 3.796875 -2.070312 3.796875 -1.6875 C 3.796875 -1.351562 3.726562 -1.050781 3.59375 -0.78125 C 3.46875 -0.507812 3.269531 -0.296875 3 -0.140625 C 2.726562 0.00390625 2.375 0.078125 1.9375 0.078125 Z "/>
</g>
<g id="glyph-0-1">
<path d="M 0.96875 0.046875 C 0.6875 0.046875 0.546875 -0.125 0.546875 -0.46875 C 0.546875 -0.820312 0.6875 -1 0.96875 -1 C 1.25 -1 1.390625 -0.820312 1.390625 -0.46875 C 1.390625 -0.125 1.25 0.046875 0.96875 0.046875 Z "/>
</g>
<g id="glyph-0-2">
</g>
<g id="glyph-0-3">
<path d="M 1.25 0 L 1.25 -0.078125 L 1.34375 -0.078125 C 1.769531 -0.078125 1.984375 -0.265625 1.984375 -0.640625 L 1.984375 -5.484375 L 1.34375 -5.484375 C 0.945312 -5.484375 0.671875 -5.40625 0.515625 -5.25 C 0.359375 -5.101562 0.269531 -4.835938 0.25 -4.453125 L 0.234375 -4.1875 L 0.15625 -4.1875 L 0.203125 -5.5625 L 4.5625 -5.5625 L 4.609375 -4.1875 L 4.53125 -4.1875 L 4.515625 -4.453125 C 4.492188 -4.835938 4.40625 -5.101562 4.25 -5.25 C 4.09375 -5.40625 3.816406 -5.484375 3.421875 -5.484375 L 2.765625 -5.484375 L 2.765625 -0.640625 C 2.765625 -0.265625 2.976562 -0.078125 3.40625 -0.078125 L 3.515625 -0.078125 L 3.515625 0 Z "/>
</g>
<g id="glyph-0-4">
<path d="M 1.671875 0.078125 C 1.273438 0.078125 0.960938 -0.0195312 0.734375 -0.21875 C 0.503906 -0.425781 0.390625 -0.710938 0.390625 -1.078125 C 0.390625 -1.472656 0.535156 -1.769531 0.828125 -1.96875 C 1.117188 -2.164062 1.5625 -2.273438 2.15625 -2.296875 L 2.8125 -2.3125 L 2.8125 -2.90625 C 2.8125 -3.195312 2.796875 -3.429688 2.765625 -3.609375 C 2.734375 -3.796875 2.664062 -3.9375 2.5625 -4.03125 C 2.457031 -4.125 2.296875 -4.171875 2.078125 -4.171875 C 1.785156 -4.171875 1.59375 -4.078125 1.5 -3.890625 C 1.414062 -3.703125 1.375 -3.410156 1.375 -3.015625 C 1.15625 -3.015625 0.988281 -3.050781 0.875 -3.125 C 0.769531 -3.195312 0.71875 -3.316406 0.71875 -3.484375 C 0.71875 -3.671875 0.78125 -3.816406 0.90625 -3.921875 C 1.03125 -4.035156 1.195312 -4.117188 1.40625 -4.171875 C 1.625 -4.222656 1.859375 -4.25 2.109375 -4.25 C 2.585938 -4.25 2.945312 -4.144531 3.1875 -3.9375 C 3.425781 -3.738281 3.546875 -3.394531 3.546875 -2.90625 L 3.546875 -0.578125 C 3.546875 -0.390625 3.582031 -0.257812 3.65625 -0.1875 C 3.726562 -0.113281 3.847656 -0.078125 4.015625 -0.078125 L 4.046875 -0.078125 L 4.046875 0 L 2.875 0 L 2.875 -0.8125 L 2.859375 -0.8125 C 2.773438 -0.5 2.625 -0.269531 2.40625 -0.125 C 2.195312 0.0078125 1.953125 0.078125 1.671875 0.078125 Z M 1.828125 -0.03125 C 2.015625 -0.03125 2.179688 -0.078125 2.328125 -0.171875 C 2.484375 -0.273438 2.601562 -0.410156 2.6875 -0.578125 C 2.769531 -0.742188 2.8125 -0.921875 2.8125 -1.109375 L 2.8125 -2.234375 L 2.3125 -2.203125 C 1.875 -2.179688 1.566406 -2.082031 1.390625 -1.90625 C 1.222656 -1.726562 1.140625 -1.421875 1.140625 -0.984375 C 1.140625 -0.347656 1.367188 -0.03125 1.828125 -0.03125 Z "/>
</g>
<g id="glyph-0-5">
<path d="M 0.140625 0 L 0.140625 -0.078125 L 0.203125 -0.078125 C 0.429688 -0.078125 0.59375 -0.125 0.6875 -0.21875 C 0.789062 -0.3125 0.84375 -0.460938 0.84375 -0.671875 L 0.84375 -5.234375 C 0.84375 -5.453125 0.789062 -5.609375 0.6875 -5.703125 C 0.59375 -5.796875 0.429688 -5.84375 0.203125 -5.84375 L 0.171875 -5.84375 L 0.171875 -5.90625 L 1.578125 -5.90625 L 1.578125 -2.6875 C 1.578125 -2.53125 1.578125 -2.375 1.578125 -2.21875 C 1.578125 -2.070312 1.570312 -1.921875 1.5625 -1.765625 L 2.875 -3.25 C 3.132812 -3.53125 3.265625 -3.734375 3.265625 -3.859375 C 3.265625 -3.941406 3.207031 -4 3.09375 -4.03125 C 2.976562 -4.070312 2.800781 -4.09375 2.5625 -4.09375 L 2.5625 -4.171875 L 4.28125 -4.171875 L 4.28125 -4.09375 C 4.144531 -4.09375 4.023438 -4.078125 3.921875 -4.046875 C 3.828125 -4.023438 3.71875 -3.960938 3.59375 -3.859375 C 3.476562 -3.765625 3.316406 -3.609375 3.109375 -3.390625 L 2.5 -2.703125 L 3.703125 -0.859375 C 3.859375 -0.609375 3.984375 -0.425781 4.078125 -0.3125 C 4.179688 -0.207031 4.265625 -0.140625 4.328125 -0.109375 C 4.398438 -0.0859375 4.46875 -0.078125 4.53125 -0.078125 L 4.5625 -0.078125 L 4.5625 0 L 4.21875 0 C 3.914062 0 3.675781 -0.0390625 3.5 -0.125 C 3.332031 -0.207031 3.175781 -0.363281 3.03125 -0.59375 L 2.03125 -2.15625 L 1.578125 -1.65625 L 1.578125 -0.71875 C 1.578125 -0.488281 1.625 -0.320312 1.71875 -0.21875 C 1.820312 -0.125 1.984375 -0.078125 2.203125 -0.078125 L 2.234375 -0.078125 L 2.234375 0 Z "/>
</g>
<g id="glyph-0-6">
<path d="M 2.265625 0.078125 C 1.691406 0.078125 1.238281 -0.109375 0.90625 -0.484375 C 0.582031 -0.859375 0.421875 -1.378906 0.421875 -2.046875 C 0.421875 -2.773438 0.570312 -3.320312 0.875 -3.6875 C 1.175781 -4.0625 1.601562 -4.25 2.15625 -4.25 C 2.65625 -4.25 3.050781 -4.09375 3.34375 -3.78125 C 3.632812 -3.46875 3.78125 -3.003906 3.78125 -2.390625 L 3.78125 -2.203125 L 1.1875 -2.203125 C 1.1875 -1.410156 1.269531 -0.84375 1.4375 -0.5 C 1.613281 -0.164062 1.898438 0 2.296875 0 C 2.585938 0 2.832031 -0.078125 3.03125 -0.234375 C 3.238281 -0.398438 3.367188 -0.640625 3.421875 -0.953125 C 3.484375 -0.941406 3.53125 -0.910156 3.5625 -0.859375 C 3.59375 -0.804688 3.609375 -0.753906 3.609375 -0.703125 C 3.609375 -0.597656 3.554688 -0.484375 3.453125 -0.359375 C 3.359375 -0.234375 3.210938 -0.128906 3.015625 -0.046875 C 2.816406 0.0351562 2.566406 0.078125 2.265625 0.078125 Z M 2.984375 -2.28125 C 2.984375 -2.957031 2.914062 -3.441406 2.78125 -3.734375 C 2.65625 -4.023438 2.441406 -4.171875 2.140625 -4.171875 C 1.828125 -4.171875 1.59375 -4.023438 1.4375 -3.734375 C 1.289062 -3.441406 1.207031 -2.957031 1.1875 -2.28125 Z "/>
</g>
<g id="glyph-0-7">
<path d="M 0.546875 -3.6875 C 0.503906 -3.832031 0.445312 -3.9375 0.375 -4 C 0.300781 -4.0625 0.207031 -4.09375 0.09375 -4.09375 L 0 -4.09375 L 0 -4.171875 L 1.9375 -4.171875 L 1.9375 -4.09375 L 1.765625 -4.09375 C 1.585938 -4.09375 1.460938 -4.066406 1.390625 -4.015625 C 1.316406 -3.972656 1.28125 -3.90625 1.28125 -3.8125 C 1.28125 -3.71875 1.304688 -3.59375 1.359375 -3.4375 L 1.890625 -1.5 C 1.941406 -1.3125 1.992188 -1.117188 2.046875 -0.921875 C 2.097656 -0.734375 2.148438 -0.539062 2.203125 -0.34375 L 2.21875 -0.34375 C 2.269531 -0.539062 2.316406 -0.734375 2.359375 -0.921875 C 2.410156 -1.117188 2.460938 -1.320312 2.515625 -1.53125 L 3.203125 -4.140625 L 3.703125 -4.140625 L 4.578125 -1.484375 C 4.648438 -1.273438 4.71875 -1.070312 4.78125 -0.875 C 4.851562 -0.675781 4.921875 -0.472656 4.984375 -0.265625 L 5 -0.265625 C 5.050781 -0.460938 5.097656 -0.660156 5.140625 -0.859375 C 5.191406 -1.054688 5.242188 -1.25 5.296875 -1.4375 L 5.796875 -3.390625 C 5.816406 -3.472656 5.832031 -3.546875 5.84375 -3.609375 C 5.851562 -3.671875 5.859375 -3.726562 5.859375 -3.78125 C 5.859375 -3.894531 5.816406 -3.972656 5.734375 -4.015625 C 5.660156 -4.066406 5.519531 -4.09375 5.3125 -4.09375 L 5.03125 -4.09375 L 5.03125 -4.171875 L 6.703125 -4.171875 L 6.703125 -4.09375 L 6.5 -4.09375 C 6.351562 -4.09375 6.226562 -4.046875 6.125 -3.953125 C 6.03125 -3.867188 5.957031 -3.710938 5.90625 -3.484375 L 5.015625 0 L 4.390625 0 L 3.171875 -3.703125 L 2.203125 0 L 1.625 0 Z "/>
</g>
<g id="glyph-0-8">
<path d="M 0.296875 1.796875 C 0.660156 1.796875 0.953125 1.765625 1.171875 1.703125 C 1.398438 1.648438 1.582031 1.566406 1.71875 1.453125 C 1.851562 1.335938 1.960938 1.1875 2.046875 1 C 2.140625 0.8125 2.234375 0.59375 2.328125 0.34375 L 0.625 -3.671875 C 0.5625 -3.828125 0.492188 -3.9375 0.421875 -4 C 0.359375 -4.0625 0.28125 -4.09375 0.1875 -4.09375 L 0.03125 -4.09375 L 0.03125 -4.171875 L 1.90625 -4.171875 L 1.90625 -4.09375 L 1.875 -4.09375 C 1.726562 -4.09375 1.613281 -4.066406 1.53125 -4.015625 C 1.445312 -3.972656 1.40625 -3.898438 1.40625 -3.796875 C 1.40625 -3.703125 1.4375 -3.582031 1.5 -3.4375 L 2.15625 -1.8125 C 2.238281 -1.613281 2.320312 -1.394531 2.40625 -1.15625 C 2.5 -0.925781 2.570312 -0.722656 2.625 -0.546875 C 2.695312 -0.753906 2.765625 -0.945312 2.828125 -1.125 C 2.890625 -1.3125 2.941406 -1.472656 2.984375 -1.609375 L 3.546875 -3.390625 C 3.597656 -3.523438 3.625 -3.640625 3.625 -3.734375 C 3.625 -3.972656 3.453125 -4.09375 3.109375 -4.09375 L 2.78125 -4.09375 L 2.78125 -4.171875 L 4.390625 -4.171875 L 4.390625 -4.09375 L 4.328125 -4.09375 C 4.140625 -4.09375 4.003906 -4.050781 3.921875 -3.96875 C 3.835938 -3.894531 3.753906 -3.734375 3.671875 -3.484375 L 2.53125 0.03125 C 2.40625 0.40625 2.285156 0.710938 2.171875 0.953125 C 2.054688 1.191406 1.925781 1.378906 1.78125 1.515625 C 1.632812 1.648438 1.445312 1.742188 1.21875 1.796875 C 0.988281 1.847656 0.703125 1.875 0.359375 1.875 L 0.296875 1.875 Z "/>
</g>
</g>
</defs>
<g fill="rgb(21.960784%, 74.117647%, 97.254902%)" fill-opacity="1">
<use xlink:href="#glyph-0-0" x="30" y="28.314453"/>
<use xlink:href="#glyph-0-1" x="34" y="28.314453"/>
<use xlink:href="#glyph-0-2" x="36" y="28.314453"/>
<use xlink:href="#glyph-0-3" x="38" y="28.314453"/>
<use xlink:href="#glyph-0-4" x="43" y="28.314453"/>
<use xlink:href="#glyph-0-5" x="47" y="28.314453"/>
<use xlink:href="#glyph-0-6" x="51" y="28.314453"/>
<use xlink:href="#glyph-0-4" x="55" y="28.314453"/>
<use xlink:href="#glyph-0-7" x="59" y="28.314453"/>
<use xlink:href="#glyph-0-4" x="66" y="28.314453"/>
<use xlink:href="#glyph-0-8" x="70" y="28.314453"/>
</g>
</svg>
