<?xml version="1.0" encoding="UTF-8"?>
<svg xmlns="http://www.w3.org/2000/svg" xmlns:xlink="http://www.w3.org/1999/xlink" width="1920" height="1080" viewBox="0 0 1920 1080">
<defs>
<g>
<g id="glyph-0-0">
<path d="M 3.015625 -2.140625 C 3.015625 -3.109375 2.53125 -3.765625 1.84375 -3.765625 C 1.140625 -3.765625 0.65625 -3.109375 0.65625 -2.140625 L 0.65625 -1.546875 C 0.65625 -0.5625 1.140625 0.09375 1.84375 0.09375 C 2.53125 0.09375 3.015625 -0.5625 3.015625 -1.546875 Z M 0.984375 -2.109375 C 0.984375 -2.484375 1.09375 -2.875 1.265625 -3.15625 C 1.390625 -3.34375 1.59375 -3.453125 1.84375 -3.453125 C 2.078125 -3.453125 2.28125 -3.34375 2.40625 -3.15625 C 2.578125 -2.875 2.6875 -2.484375 2.6875 -2.109375 L 2.6875 -1.5625 C 2.6875 -1.203125 2.578125 -0.796875 2.40625 -0.515625 C 2.28125 -0.328125 2.078125 -0.21875 1.84375 -0.21875 C 1.59375 -0.21875 1.390625 -0.328125 1.265625 -0.515625 C 1.09375 -0.796875 0.984375 -1.203125 0.984375 -1.5625 Z "/>
</g>
<g id="glyph-0-1">
<path d="M 1.796875 -0.75 C 1.546875 -0.75 1.34375 -0.578125 1.34375 -0.34375 C 1.34375 -0.09375 1.546875 0.09375 1.796875 0.09375 L 1.875 0.09375 C 2.125 0.09375 2.328125 -0.09375 2.328125 -0.34375 C 2.328125 -0.578125 2.125 -0.75 1.875 -0.75 Z "/>
</g>
<g id="glyph-0-2">
<path d="M 2 -3.75 L 0.828125 -3.375 C 0.703125 -3.34375 0.671875 -3.3125 0.671875 -3.21875 C 0.671875 -3.140625 0.75 -3.0625 0.8125 -3.0625 C 0.828125 -3.0625 0.890625 -3.078125 0.921875 -3.078125 L 1.6875 -3.328125 L 1.6875 -0.3125 L 0.859375 -0.3125 C 0.734375 -0.3125 0.65625 -0.25 0.65625 -0.15625 C 0.65625 -0.0625 0.734375 0 0.859375 0 L 2.8125 0 C 2.9375 0 3.015625 -0.0625 3.015625 -0.15625 C 3.015625 -0.25 2.9375 -0.3125 2.8125 -0.3125 L 2 -0.3125 Z "/>
</g>
<g id="glyph-0-3">
<path d="M 2.265625 -1.015625 L 2.265625 -0.3125 L 1.828125 -0.3125 C 1.703125 -0.3125 1.640625 -0.25 1.640625 -0.15625 C 1.640625 -0.0625 1.703125 0 1.828125 0 L 2.765625 0 C 2.890625 0 2.953125 -0.0625 2.953125 -0.15625 C 2.953125 -0.25 2.890625 -0.3125 2.765625 -0.3125 L 2.578125 -0.3125 L 2.578125 -1.015625 L 2.765625 -1.015625 C 2.890625 -1.015625 2.953125 -1.0625 2.953125 -1.171875 C 2.953125 -1.265625 2.890625 -1.328125 2.765625 -1.328125 L 2.578125 -1.328125 L 2.578125 -3.6875 L 2.015625 -3.6875 L 0.609375 -1.34375 L 0.609375 -1.015625 Z M 2.265625 -1.328125 L 0.9375 -1.328125 L 2.171875 -3.375 L 2.265625 -3.375 Z "/>
</g>
</g>
</defs>
<g fill="rgb(98.039216%, 80%, 8.235294%)" fill-opacity="1">
<use xlink:href="#glyph-0-0" x="30" y="23.68457"/>
<use xlink:href="#glyph-0-1" x="34" y="23.68457"/>
<use xlink:href="#glyph-0-0" x="38" y="23.68457"/>
<use xlink:href="#glyph-0-0" x="42" y="23.68457"/>
<use xlink:href="#glyph-0-0" x="46" y="23.68457"/>
<use xlink:href="#glyph-0-2" x="50" y="23.68457"/>
<use xlink:href="#glyph-0-2" x="54" y="23.68457"/>
<use xlink:href="#glyph-0-3" x="58" y="23.68457"/>
</g>
</svg>
